<mxfile host="app.diagrams.net" modified="2024-07-11T17:39:37.539Z" agent="Mozilla/5.0 (Windows NT 10.0; Win64; x64) AppleWebKit/537.36 (KHTML, like Gecko) Chrome/126.0.0.0 Safari/537.36" etag="k9OUQh1hHcH3cQce7d9v" version="24.6.4" type="device">
  <diagram name="Page-1" id="w5ClZPRWRFvCxjPFkPrI">
    <mxGraphModel dx="1154" dy="532" grid="1" gridSize="10" guides="1" tooltips="1" connect="1" arrows="1" fold="1" page="1" pageScale="1" pageWidth="850" pageHeight="1100" math="0" shadow="0">
      <root>
        <mxCell id="0" />
        <mxCell id="1" parent="0" />
        <mxCell id="pscRUcZhTwgnnduImwL--1" value="Start" style="rounded=1;whiteSpace=wrap;html=1;" vertex="1" parent="1">
          <mxGeometry x="140" y="50" width="120" height="60" as="geometry" />
        </mxCell>
        <mxCell id="pscRUcZhTwgnnduImwL--2" value="Stop" style="rounded=1;whiteSpace=wrap;html=1;" vertex="1" parent="1">
          <mxGeometry x="355" y="460" width="120" height="60" as="geometry" />
        </mxCell>
        <mxCell id="pscRUcZhTwgnnduImwL--3" value="price: int = 0&lt;div&gt;total: int = 0&lt;/div&gt;&lt;div&gt;count: int = 0&lt;/div&gt;" style="rounded=0;whiteSpace=wrap;html=1;" vertex="1" parent="1">
          <mxGeometry x="140" y="130" width="120" height="60" as="geometry" />
        </mxCell>
        <mxCell id="pscRUcZhTwgnnduImwL--18" style="edgeStyle=orthogonalEdgeStyle;rounded=0;orthogonalLoop=1;jettySize=auto;html=1;" edge="1" parent="1" source="pscRUcZhTwgnnduImwL--13">
          <mxGeometry relative="1" as="geometry">
            <mxPoint x="350" y="310" as="targetPoint" />
            <Array as="points">
              <mxPoint x="340" y="240" />
              <mxPoint x="340" y="310" />
            </Array>
          </mxGeometry>
        </mxCell>
        <mxCell id="pscRUcZhTwgnnduImwL--13" value="while&lt;div&gt;total &amp;lt;= 1000&lt;/div&gt;" style="ellipse;whiteSpace=wrap;html=1;aspect=fixed;" vertex="1" parent="1">
          <mxGeometry x="150" y="210" width="80" height="80" as="geometry" />
        </mxCell>
        <mxCell id="pscRUcZhTwgnnduImwL--14" value="" style="endArrow=none;html=1;rounded=0;" edge="1" parent="1">
          <mxGeometry width="50" height="50" relative="1" as="geometry">
            <mxPoint x="162.5" y="479.99999999999994" as="sourcePoint" />
            <mxPoint x="232.5" y="479.99999999999994" as="targetPoint" />
          </mxGeometry>
        </mxCell>
        <mxCell id="pscRUcZhTwgnnduImwL--15" value="" style="endArrow=none;html=1;rounded=0;" edge="1" parent="1">
          <mxGeometry width="50" height="50" relative="1" as="geometry">
            <mxPoint x="137.5" y="489.99999999999994" as="sourcePoint" />
            <mxPoint x="242.5" y="489.99999999999994" as="targetPoint" />
          </mxGeometry>
        </mxCell>
        <mxCell id="pscRUcZhTwgnnduImwL--16" value="" style="endArrow=classic;html=1;rounded=0;" edge="1" parent="1">
          <mxGeometry width="50" height="50" relative="1" as="geometry">
            <mxPoint x="197.16" y="440" as="sourcePoint" />
            <mxPoint x="197.16" y="470" as="targetPoint" />
          </mxGeometry>
        </mxCell>
        <mxCell id="pscRUcZhTwgnnduImwL--20" value="" style="edgeStyle=orthogonalEdgeStyle;rounded=0;orthogonalLoop=1;jettySize=auto;html=1;" edge="1" parent="1" source="pscRUcZhTwgnnduImwL--19" target="pscRUcZhTwgnnduImwL--2">
          <mxGeometry relative="1" as="geometry" />
        </mxCell>
        <mxCell id="pscRUcZhTwgnnduImwL--19" value="print(total, diff, count)" style="shape=document;whiteSpace=wrap;html=1;boundedLbl=1;" vertex="1" parent="1">
          <mxGeometry x="355" y="357" width="120" height="70" as="geometry" />
        </mxCell>
        <mxCell id="pscRUcZhTwgnnduImwL--21" value="grade:&lt;div&gt;-1&lt;/div&gt;&lt;div&gt;sum: 170&lt;/div&gt;&lt;div&gt;count: 2&lt;/div&gt;&lt;div&gt;avg: 85&lt;/div&gt;" style="text;html=1;align=center;verticalAlign=middle;whiteSpace=wrap;rounded=0;" vertex="1" parent="1">
          <mxGeometry x="360" y="70" width="160" height="90" as="geometry" />
        </mxCell>
        <mxCell id="pscRUcZhTwgnnduImwL--23" value="input price" style="shape=card;whiteSpace=wrap;html=1;" vertex="1" parent="1">
          <mxGeometry x="145" y="310" width="90" height="40" as="geometry" />
        </mxCell>
        <mxCell id="pscRUcZhTwgnnduImwL--24" value="diff: int = total - 1,000" style="rounded=0;whiteSpace=wrap;html=1;" vertex="1" parent="1">
          <mxGeometry x="355" y="260" width="150" height="80" as="geometry" />
        </mxCell>
        <mxCell id="pscRUcZhTwgnnduImwL--25" value="total = total + price&lt;div&gt;count = count + 1&lt;/div&gt;" style="rounded=0;whiteSpace=wrap;html=1;" vertex="1" parent="1">
          <mxGeometry x="135" y="387" width="120" height="40" as="geometry" />
        </mxCell>
      </root>
    </mxGraphModel>
  </diagram>
</mxfile>
